<svg width="420" height="130" viewBox="0 0 420 130" fill="none" xmlns="http://www.w3.org/2000/svg">
<path d="M104.062 129.375C100.521 129.375 97.0833 128.521 93.75 126.812C88.125 123.604 84.3125 119.167 82.3125 113.5C80.3125 107.833 79.3125 101.917 79.3125 95.75C79.2708 95.1667 79.25 94.5625 79.25 93.9375C79.25 88.0625 79.7708 82.2292 80.8125 76.4375C81.8542 70.6458 83.125 64.9167 84.625 59.25C84.5 59.25 84.375 59.25 84.25 59.25L63.9375 58.9375C63.5625 60.5625 63.1875 62.1875 62.8125 63.8125C61.8125 68.2708 60.6667 72.7917 59.375 77.375C58.0833 81.9167 56.3125 86.2083 54.0625 90.25C51.2292 95.25 47.4583 99.4583 42.75 102.875C38.0833 106.292 32.8333 108.229 27 108.688C26.4583 108.729 25.8958 108.75 25.3125 108.75C22.3542 108.75 19.4167 108.271 16.5 107.312C13.625 106.354 11.0208 104.938 8.6875 103.062C3.97917 98.8958 1.29167 93.7083 0.625 87.5C0.541667 86.75 0.5 86 0.5 85.25C0.5 82.4167 1.0625 79.6458 2.1875 76.9375C3.3125 74.2292 5.02083 71.9583 7.3125 70.125C8.6875 69.0417 10.1875 68.1458 11.8125 67.4375C13.4792 66.6875 15.1875 66.3125 16.9375 66.3125H17.0625C18.3542 66.3125 19.6042 66.625 20.8125 67.25C22.0208 67.875 22.625 68.7917 22.625 70C22.625 70.375 22.5417 70.7708 22.375 71.1875C22.3333 71.3958 22.2292 71.6042 22.0625 71.8125C21.3125 72.9792 20.9375 74.2292 20.9375 75.5625C20.9375 76.9792 21.3125 78.3125 22.0625 79.5625C22.8958 80.8542 24 81.8125 25.375 82.4375C26.7917 83.0625 28.25 83.375 29.75 83.375C30.0833 83.375 30.4167 83.3542 30.75 83.3125C34.2917 82.8125 37.0208 81.0208 38.9375 77.9375C41.0208 74.7292 42.7708 71.3125 44.1875 67.6875C45.6458 64.0208 46.9375 60.375 48.0625 56.75C50.6458 48.5 52.9375 40.1875 54.9375 31.8125C56.1042 26.8542 57.5625 22.0208 59.3125 17.3125C57.3542 17.3958 55.4167 17.4583 53.5 17.5C49.7083 17.4583 45.8125 17.6458 41.8125 18.0625C37.8125 18.4375 34.25 19.8125 31.125 22.1875C28.375 24.8125 27 27.7708 27 31.0625C27 32.4792 27.2917 33.8542 27.875 35.1875C28.5 36.4792 29.4792 37.6042 30.8125 38.5625C31.5208 38.9792 32.3125 39.375 33.1875 39.75C34.0625 40.125 34.6458 40.7292 34.9375 41.5625C35.0208 41.8125 35.0625 42.1042 35.0625 42.4375C35.0625 42.7292 35.0417 43.0208 35 43.3125C34.8333 45.9375 34.1042 48.3958 32.8125 50.6875C31.3542 53.1042 29.4167 54.8958 27 56.0625C24.5833 57.1875 22.0417 57.75 19.375 57.75C17.125 57.75 14.9375 57.3542 12.8125 56.5625C8.6875 54.9375 5.6875 52.3958 3.8125 48.9375C1.97917 45.4792 1.0625 41.75 1.0625 37.75C1.0625 33.5417 1.95833 29.4792 3.75 25.5625C6.66667 19.3542 11.2708 14.8958 17.5625 12.1875C20.8958 10.8958 24.3333 10.0417 27.875 9.625C31.4583 9.20833 35.0208 9 38.5625 9C39.9375 9 41.2917 9 42.625 9C46 9.125 49.3542 9.33333 52.6875 9.625C56.0208 9.875 59.3542 10.0625 62.6875 10.1875C63.6875 8.4375 64.8333 6.8125 66.125 5.3125C67.4583 3.8125 68.9583 2.60417 70.625 1.6875C72.3333 0.729167 74.25 0.25 76.375 0.25C77.0833 0.25 77.875 0.3125 78.75 0.4375C79.6667 0.5625 80.4583 0.833333 81.125 1.25C82.25 1.79167 83.125 2.64583 83.75 3.8125C84.375 4.97917 84.6875 6.1875 84.6875 7.4375C84.6875 7.97917 84.625 8.52083 84.5 9.0625C84.1667 10.2708 83.5417 11.2917 82.625 12.125C81.75 12.9167 80.75 13.5625 79.625 14.0625C77.7917 14.8125 75.9167 15.375 74 15.75C72.375 21.2083 71.0208 26.6458 69.9375 32.0625C68.3958 38.8958 66.875 45.7292 65.375 52.5625L84.3125 52.875C84.9375 52.875 85.5208 53.0625 86.0625 53.4375C89.0208 41.1042 92.75 29.0417 97.25 17.25C98.375 14.0833 99.9375 11.2083 101.938 8.625C103.979 6 106.812 4.52083 110.438 4.1875H110.625C111.458 4.1875 112.625 4.39583 114.125 4.8125C115.625 5.22917 116.979 5.83333 118.188 6.625C119.396 7.41667 120 8.375 120 9.5C120 10 119.833 10.5208 119.5 11.0625C119.375 11.2292 119.25 11.3958 119.125 11.5625C119.083 11.6042 119.062 11.625 119.062 11.625L119 11.75C118.792 12.0417 118.604 12.3333 118.438 12.625C117.938 13.5 117.479 14.375 117.062 15.25C115.771 17.9167 114.583 20.625 113.5 23.375C110.458 30.9167 107.833 38.6458 105.625 46.5625C103.417 54.4375 101.854 62.4167 100.938 70.5C100.562 73.75 100.375 77 100.375 80.25C100.375 84.6667 100.917 89.0208 102 93.3125C102.833 96.2708 104.167 99 106 101.5C107.833 104 110.062 106.021 112.688 107.562C115.312 109.146 118.208 109.938 121.375 109.938H122.188C122.812 109.938 123.333 110.167 123.75 110.625C124.167 111.125 124.396 111.688 124.438 112.312L124.5 113.062C124.5 115.979 123.521 118.625 121.562 121C119.646 123.417 117.417 125.292 114.875 126.625C111.375 128.458 107.771 129.375 104.062 129.375ZM134.062 96.75C133.229 96.75 132.375 96.7083 131.5 96.625C127.333 96 123.979 94.4375 121.438 91.9375C118.938 89.4375 117.125 86.3958 116 82.8125C114.833 79.1875 114.25 75.5 114.25 71.75C114.25 67.5 114.917 63.3542 116.25 59.3125C117.583 55.2292 119.438 51.5625 121.812 48.3125C124.229 45.0208 127.083 42.3958 130.375 40.4375C133.708 38.4792 137.333 37.5 141.25 37.5C143.792 37.5 146.208 38 148.5 39C150.792 39.9583 152.812 41.4375 154.562 43.4375C155.729 44.6875 156.854 46.5833 157.938 49.125C159.146 52.7083 159.75 56.4375 159.75 60.3125C159.75 62.9375 159.542 65.5417 159.125 68.125C159.75 68.25 160.396 68.3125 161.062 68.3125C162.938 68.3125 164.604 67.8542 166.062 66.9375C167.562 66.0208 168.875 64.7917 170 63.25C171.125 61.625 172.021 60.0208 172.688 58.4375L172.5 58.8125C173 57.6042 173.771 57 174.812 57C175.396 57 175.938 57.2292 176.438 57.6875C176.979 58.1458 177.25 58.7292 177.25 59.4375C177.25 59.6458 177.208 59.8542 177.125 60.0625C175.667 64.0625 173.167 67.625 169.625 70.75C166.083 73.8333 161.938 75.625 157.188 76.125C155.979 79.625 154.312 82.9375 152.188 86.0625C150.062 89.1875 147.479 91.75 144.438 93.75C141.396 95.75 137.938 96.75 134.062 96.75ZM138.5 77.9375C140.125 77.9375 141.562 77.5 142.812 76.625C144.062 75.7083 145.146 74.5417 146.062 73.125C143.688 71.4583 142.5 69.375 142.5 66.875C142.5 64.8333 143.25 63.1458 144.75 61.8125C146.25 60.4792 148.062 59.75 150.188 59.625V59.6875L150.25 57.5625C150.25 55.4792 149.938 53.2708 149.312 50.9375C148.729 48.5625 147.604 47 145.938 46.25C145.396 46.125 144.854 46.0625 144.312 46.0625C143.188 46.0625 142.083 46.3542 141 46.9375C139 48.1042 137.396 49.7917 136.188 52C135.021 54.1667 134.125 56.3333 133.5 58.5C133.083 59.75 132.688 61.3125 132.312 63.1875C131.938 65.0625 131.75 66.9583 131.75 68.875C131.75 71.1667 132.188 73.1875 133.062 74.9375C133.938 76.6875 135.562 77.6875 137.938 77.9375H138.5ZM183.5 96.625C181.667 96.625 179.854 96.375 178.062 95.875C176.312 95.3333 174.688 94.5 173.188 93.375C170.979 91.6667 169.438 89.625 168.562 87.25C167.688 84.875 167.25 82.3958 167.25 79.8125C167.25 77.8542 167.438 75.8958 167.812 73.9375C169.188 66.9792 170.917 60.1042 173 53.3125C175.25 45.5208 177.771 37.8125 180.562 30.1875L173.562 30.0625C172.688 30.0208 171.958 29.7083 171.375 29.125C170.75 28.5 170.438 27.75 170.438 26.875C170.646 24.9583 171.729 23.8958 173.688 23.6875L183.062 23.8125C184.104 21.1875 185.208 18.5625 186.375 15.9375C187.042 14.3125 187.812 12.7292 188.688 11.1875C189.604 9.60417 190.792 8.27083 192.25 7.1875C193.875 6.14583 195.75 5.625 197.875 5.625C199.708 5.625 201.438 6.04167 203.062 6.875C204.688 7.70833 205.812 8.97917 206.438 10.6875V10.9375C206.438 11.5208 206.188 12.1458 205.688 12.8125C205.188 13.4792 204.875 13.875 204.75 14C202.875 16.5417 201.188 19.8958 199.688 24.0625L207.5 24.125C208.417 24.1667 209.167 24.5 209.75 25.125C210.375 25.75 210.688 26.5 210.688 27.375C210.646 28.2917 210.312 29.0625 209.688 29.6875C209.062 30.2708 208.333 30.5625 207.5 30.5625L197.375 30.4375C193.167 42.3958 190.104 54.6042 188.188 67.0625C187.938 68.2292 187.812 69.5 187.812 70.875C187.812 72.4167 188.104 73.8958 188.688 75.3125C189.312 76.4375 190.167 77.2083 191.25 77.625C192.333 78 193.521 78.1875 194.812 78.1875C197.354 78.1875 199.688 77.5625 201.812 76.3125C203.938 75.0625 205.875 73.4375 207.625 71.4375C209.375 69.4375 210.917 67.2917 212.25 65C213.625 62.6667 214.792 60.4167 215.75 58.25C216.208 57.4167 216.792 57 217.5 57C218.125 57 218.708 57.25 219.25 57.75C219.833 58.25 220.125 58.875 220.125 59.625C220.125 59.9583 220.042 60.3125 219.875 60.6875C216.083 69.2292 211.167 77.125 205.125 84.375C203.208 86.625 201.146 88.6667 198.938 90.5C196.771 92.3333 194.396 93.8125 191.812 94.9375C189.271 96.0625 186.5 96.625 183.5 96.625ZM233.125 108.562C231.625 108.562 230.146 108.438 228.688 108.188C223.896 107.229 220.083 104.938 217.25 101.312C214.417 97.7292 213 93.6042 213 88.9375C213 88.5208 213.021 88.1042 213.062 87.6875C213.188 85.1458 213.792 82.5625 214.875 79.9375C215.917 77.3125 217.417 75.1042 219.375 73.3125C221.333 71.4792 223.729 70.5625 226.562 70.5625H226.938C227.688 70.6042 228.271 70.875 228.688 71.375C229.146 71.7917 229.375 72.3125 229.375 72.9375C229.375 73.3125 229.25 73.7083 229 74.125C228.292 75.2917 227.938 76.5 227.938 77.75C227.938 78.5417 228.083 79.3542 228.375 80.1875C229.125 81.8958 230.354 83.1667 232.062 84C233.812 84.7917 235.604 85.1875 237.438 85.1875C238.521 85.1875 239.542 85.0625 240.5 84.8125C243 83.9792 244.896 82.4375 246.188 80.1875C247.479 77.9375 248.5 75.6458 249.25 73.3125C252.708 63.5625 255.896 53.7083 258.812 43.75C260.146 39.2083 261.542 34.6667 263 30.125C263.625 28.1667 264.292 26.1875 265 24.1875C265.75 22.1458 266.708 20.2708 267.875 18.5625C268 18.3958 268.125 18.2292 268.25 18.0625C268 18.0208 267.771 17.9792 267.562 17.9375C265.646 17.5625 263.688 17.2292 261.688 16.9375C259.729 16.6458 257.771 16.5 255.812 16.5C255.271 16.5 254.708 16.5208 254.125 16.5625C252.125 16.6458 250.271 17.1667 248.562 18.125C246.896 19.0417 245.875 20.5833 245.5 22.75C245.458 23 245.438 23.2917 245.438 23.625C245.438 24.9167 245.771 26.2708 246.438 27.6875C247.146 29.0625 248.208 29.75 249.625 29.75L250 29.6875C250.75 29.6875 251.396 30.0833 251.938 30.875C252.188 31.4583 252.312 32.0625 252.312 32.6875C252.312 33.6875 252.167 34.6458 251.875 35.5625C251.25 38.1042 250.083 40.3333 248.375 42.25C246.708 44.0417 244.708 45.3542 242.375 46.1875C240.083 46.9792 237.708 47.375 235.25 47.375C232.917 47.375 230.688 47.0417 228.562 46.375C224.771 45.2083 221.75 43.1667 219.5 40.25C217.25 37.3333 216.125 33.9375 216.125 30.0625C216.125 29.7708 216.125 29.4792 216.125 29.1875C216.417 24.6458 217.729 20.9375 220.062 18.0625C222.438 15.1458 225.438 12.8958 229.062 11.3125C232.729 9.6875 236.625 8.58333 240.75 8C244.917 7.41667 248.833 7.125 252.5 7.125H253.062C258.854 7.25 264.604 7.72917 270.312 8.5625C275.688 9.3125 281.062 10.125 286.438 11C291.854 11.8333 297.25 12.5208 302.625 13.0625C305.583 13.4375 308.562 13.625 311.562 13.625C312.771 13.625 314 13.5833 315.25 13.5C317.167 13.4583 318.896 12.9167 320.438 11.875C321.938 10.5 322.688 9 322.688 7.375V6.9375C322.688 6.3125 322.938 5.79167 323.438 5.375C323.938 4.95833 324.479 4.72917 325.062 4.6875H325.562C328.729 4.6875 331.354 5.85417 333.438 8.1875C335.521 10.4792 336.562 13.0625 336.562 15.9375C336.562 17.9792 335.958 19.9792 334.75 21.9375C333.167 24.1458 331.125 25.6667 328.625 26.5C326.167 27.2917 323.604 27.6875 320.938 27.6875C318.312 27.6875 315.792 27.4792 313.375 27.0625C308.5 26.1875 303.646 25.1667 298.812 24C293.729 22.9583 288.625 21.9583 283.5 21L282.125 20.75C281.667 22.9583 281.125 25.1042 280.5 27.1875C279.417 30.8958 278.271 34.6042 277.062 38.3125C274.104 48.0625 271.312 57.8542 268.688 67.6875C267.271 73.0208 265.646 78.375 263.812 83.75C261.979 89.0833 259.312 93.9167 255.812 98.25C253.021 101.458 249.604 103.979 245.562 105.812C241.521 107.646 237.375 108.562 233.125 108.562ZM305.875 96.75C301.333 96.75 297.125 95.5208 293.25 93.0625C289.417 90.5625 286.771 86.9792 285.312 82.3125C284.604 79.6875 284.25 76.9792 284.25 74.1875C284.25 69.9375 284.958 65.6667 286.375 61.375C287.75 57.0833 289.667 53.1667 292.125 49.625C294.583 46.0833 297.479 43.2292 300.812 41.0625C304.146 38.8958 307.75 37.8125 311.625 37.8125C314.792 37.8125 317.812 38.6875 320.688 40.4375C323.562 42.1875 325.417 44.8333 326.25 48.375C326.458 49.375 326.562 50.375 326.562 51.375C326.562 53.9583 326 56.4583 324.875 58.875C323.792 61.25 322.375 63.4167 320.625 65.375C318.792 67.5 316.5 69.375 313.75 71C311 72.625 308.188 73.4375 305.312 73.4375C304.438 73.4375 303.583 73.3333 302.75 73.125C304.333 75.2083 306.396 76.8333 308.938 78C311.521 79.125 314.125 79.6875 316.75 79.6875C319.292 79.6875 321.583 79.1667 323.625 78.125C325.708 77.0417 327.583 75.6667 329.25 74C330.958 72.2917 332.521 70.4167 333.938 68.375C335.979 65.4583 337.604 62.3125 338.812 58.9375C339.021 58.3958 339.333 58 339.75 57.75C340.208 57.4583 340.667 57.3125 341.125 57.3125C341.75 57.3125 342.312 57.5 342.812 57.875C343.312 58.25 343.562 58.75 343.562 59.375C343.562 59.625 343.521 59.9167 343.438 60.25C340.688 68.0417 336.833 75.1667 331.875 81.625C326.917 88.0417 320.917 92.625 313.875 95.375C311.25 96.2917 308.583 96.75 305.875 96.75ZM300.625 64.8125C305.208 64.4375 309.062 62.5 312.188 59C313.354 57.6667 314.375 56.1667 315.25 54.5C316.125 52.7917 316.562 51.0625 316.562 49.3125C316.396 47.2292 315.167 46.1875 312.875 46.1875C311.875 46.1875 310.896 46.4167 309.938 46.875C308.979 47.2917 308.146 47.8125 307.438 48.4375C305.104 50.3542 303.396 52.7917 302.312 55.75C301.229 58.7083 300.667 61.7292 300.625 64.8125ZM384.562 96.8125C382.271 96.8125 379.979 96.2292 377.688 95.0625C375.229 93.7292 373.521 91.9792 372.562 89.8125C371.604 87.6458 371.125 85.3333 371.125 82.875C371.125 81.6667 371.208 80.4583 371.375 79.25L370 82.125C368.708 85 367.104 87.6042 365.188 89.9375C363.271 92.2708 360.833 94.0833 357.875 95.375C355.708 96.25 353.542 96.6875 351.375 96.6875C348.833 96.6875 346.396 96.125 344.062 95C341.771 93.875 339.854 92.2292 338.312 90.0625C336.854 87.9375 335.812 85.6667 335.188 83.25C334.562 80.7917 334.25 78.3125 334.25 75.8125C334.25 67.8542 336.396 60.3125 340.688 53.1875C344.979 46.0208 350.854 41.125 358.312 38.5C360.604 37.7917 362.938 37.4375 365.312 37.4375C368.812 37.4375 371.938 38.2292 374.688 39.8125C377.479 41.3958 379.646 43.7917 381.188 47L382.25 44.375C382.75 43 383.354 41.7292 384.062 40.5625C384.812 39.3958 385.917 38.5417 387.375 38C388.542 37.625 389.812 37.4375 391.188 37.4375C392.812 37.4375 394.375 37.75 395.875 38.375C397.417 38.9583 398.479 39.9583 399.062 41.375L399.188 42C399.188 42.5417 399.021 43 398.688 43.375C398.354 43.7083 397.958 44.2917 397.5 45.125C396.125 48.1667 395.021 51.3333 394.188 54.625C393.396 57.3333 392.646 60.0833 391.938 62.875C391.271 65.625 390.875 68.4792 390.75 71.4375C390.75 72.8542 391.042 74.125 391.625 75.25C392.208 76.3333 393.229 77.1458 394.688 77.6875C395.604 77.9792 396.521 78.125 397.438 78.125C399.562 78.125 401.5 77.5 403.25 76.25C405 74.9583 406.562 73.3333 407.938 71.375C409.354 69.4167 410.583 67.3542 411.625 65.1875C412.708 62.9792 413.625 60.9167 414.375 59C414.375 58.625 414.625 58.2292 415.125 57.8125C415.625 57.3958 416.146 57.1875 416.688 57.1875C417.312 57.1875 417.875 57.375 418.375 57.75C418.917 58.125 419.188 58.625 419.188 59.25C419.188 59.5417 419.146 59.8333 419.062 60.125C415.938 68.5833 411.396 76.6458 405.438 84.3125C403.812 86.3542 401.896 88.3333 399.688 90.25C397.479 92.125 395.083 93.6875 392.5 94.9375C389.917 96.1875 387.271 96.8125 384.562 96.8125ZM357.125 75.375C358.875 75.375 360.479 74.7083 361.938 73.375C363.396 72 364.625 70.5833 365.625 69.125C368.958 64.5833 371.479 59.6458 373.188 54.3125C373.729 52.7292 374 51.1667 374 49.625C374 49.25 373.979 48.875 373.938 48.5C372.521 46.5833 370.667 45.625 368.375 45.625C366.25 45.7917 364.375 46.5833 362.75 48C361.125 49.375 359.75 50.9583 358.625 52.75C356.417 56.125 354.833 59.7917 353.875 63.75C353.292 65.6667 353 67.625 353 69.625C353 70.75 353.167 71.8333 353.5 72.875C353.833 73.75 354.312 74.3958 354.938 74.8125C355.604 75.1875 356.333 75.375 357.125 75.375Z" fill="black"/>
</svg>
